<?xml version="1.0" encoding="UTF-8"?>
<svg width="23px" height="23px" viewBox="0 0 23 23" version="1.1" xmlns="http://www.w3.org/2000/svg" xmlns:xlink="http://www.w3.org/1999/xlink">
    <title>linkedin</title>
    <g id="Page-1" stroke="none" stroke-width="1" fill="none" fill-rule="evenodd">
        <g id="Main-page" transform="translate(-630.000000, -858.000000)" fill="#FFFFFF" fill-rule="nonzero">
            <g id="Group-2" transform="translate(630.175781, 762.011719)">
                <g id="linkedin" transform="translate(0.000000, 96.679688)">
                    <path d="M17.9709961,17.9753906 L14.8473633,17.9753906 L14.8473633,13.0807617 C14.8473633,11.9135742 14.8236328,10.4115234 13.2196289,10.4115234 C11.5910156,10.4115234 11.3422852,11.681543 11.3422852,12.9946289 L11.3422852,17.9753906 L8.21865234,17.9753906 L8.21865234,7.91015625 L11.2192383,7.91015625 L11.2192383,9.28212891 L11.259668,9.28212891 C11.6789063,8.49111328 12.6984375,7.65615234 14.221582,7.65615234 C17.3865234,7.65615234 17.971875,9.73916016 17.971875,12.4505859 L17.971875,17.9753906 L17.9709961,17.9753906 Z M4.69072266,6.53291016 C3.68525391,6.53291016 2.87753906,5.71904297 2.87753906,4.71796875 C2.87753906,3.71777344 3.68613281,2.90478516 4.69072266,2.90478516 C5.69267578,2.90478516 6.50478516,3.71777344 6.50478516,4.71796875 C6.50478516,5.71904297 5.69179687,6.53291016 4.69072266,6.53291016 Z M6.25693359,17.9753906 L3.12451172,17.9753906 L3.12451172,7.91015625 L6.25693359,7.91015625 L6.25693359,17.9753906 Z M19.5336914,0 L1.55654297,0 C0.69609375,0 0,0.680273438 0,1.51962891 L0,19.5741211 C0,20.4143555 0.69609375,21.09375 1.55654297,21.09375 L19.5310547,21.09375 C20.390625,21.09375 21.09375,20.4143555 21.09375,19.5741211 L21.09375,1.51962891 C21.09375,0.680273438 20.390625,0 19.5310547,0 L19.5336914,0 Z" id="Shape"></path>
                </g>
            </g>
        </g>
    </g>
</svg>