<?xml version="1.0" encoding="UTF-8"?>
<svg width="23px" height="23px" viewBox="0 0 23 23" version="1.1" xmlns="http://www.w3.org/2000/svg" xmlns:xlink="http://www.w3.org/1999/xlink">
    <title>phone</title>
    <g id="Page-1" stroke="none" stroke-width="1" fill="none" fill-rule="evenodd">
        <g id="Main-page" transform="translate(-630.000000, -812.000000)" fill="#FFFFFF" fill-rule="nonzero">
            <g id="Group-2" transform="translate(630.175781, 762.011719)">
                <g id="phone" transform="translate(11.000000, 61.070312) scale(-1, 1) rotate(-180.000000) translate(-11.000000, -61.070312) translate(-0.000000, 50.070312)">
                    <path d="M3.90926309,20.8814791 C1.9625947,20.0521816 0.529011708,18.8658732 0.106534091,17.7498917 C0.0109762397,17.4984786 -0.00408918733,17.3578249 0.000860881543,16.7545626 C0.00581095041,15.4476018 0.322830579,13.9999873 0.961604683,12.3813947 C1.8317407,10.1799711 3.1144542,8.19447454 4.97073003,6.17370705 C8.28060434,2.57477952 12.7272727,0.202162775 16.5450671,0.0111834727 C17.2593836,-0.0290340156 17.5912534,0.0363462862 18.1497503,0.327761776 C19.0803633,0.810371635 20.2272727,2.34336766 20.9164084,4.02239403 C21.1176395,4.50500389 21.1327049,4.60544007 21.0270317,4.80652752 C20.941374,4.97255907 16.2986398,8.26996298 16.0119663,8.37039916 C15.8057851,8.43577947 15.5744232,8.41556319 15.3529614,8.30501886 C15.2774191,8.26480137 14.8650568,7.80240779 14.4324638,7.27958044 C13.5522125,6.208978 13.4314738,6.11348835 12.9435692,6.10832675 C12.6769112,6.10832675 12.601584,6.13348956 11.9828254,6.47523068 C9.19593664,7.99833363 7.98381543,9.20980481 6.45962466,11.9944895 C6.11763946,12.617753 6.09245868,12.688295 6.09245868,12.9597092 C6.09740875,13.4423191 6.20824725,13.5829728 7.2645489,14.4475412 C7.7776343,14.8647708 8.23540806,15.2820003 8.2907197,15.3673819 C8.39639291,15.5534146 8.41145833,15.9504279 8.32085055,16.1315141 C8.28555441,16.1968944 7.50602617,17.3126609 6.59047865,18.6045671 C5.51911157,20.12767 4.88012225,20.9870769 4.78972968,21.032456 C4.58333333,21.1378387 4.46754477,21.1178375 3.90926309,20.8814791 Z" id="Path"></path>
                </g>
            </g>
        </g>
    </g>
</svg>