<svg width="23" height="23" viewBox="0 0 23 23" fill="none" xmlns="http://www.w3.org/2000/svg">
<g clip-path="url(#clip0_1_2)">
<path fill-rule="evenodd" clip-rule="evenodd" d="M0 11.5C0 17.8513 5.14874 23 11.5 23C17.8513 23 23 17.8513 23 11.5C23 5.14874 17.8513 0 11.5 0C5.14874 0 0 5.14874 0 11.5ZM9.39167 16.7708L9.58731 13.8394L9.58717 13.8393L14.9198 9.02702C15.1538 8.8193 14.8687 8.71801 14.558 8.90641L7.97683 13.0584L5.13413 12.1712C4.52022 11.9832 4.51581 11.5613 5.27194 11.2581L16.3493 6.98668C16.8553 6.75697 17.3436 7.1082 17.1504 7.88253L15.2639 16.7723C15.1322 17.4041 14.7505 17.5551 14.2217 17.2633L11.348 15.1402L9.96667 16.4833C9.96231 16.4876 9.95799 16.4918 9.95368 16.496C9.7992 16.6464 9.67136 16.7708 9.39167 16.7708Z" fill="white"/>
</g>
<defs>
<clipPath id="clip0_1_2">
<rect width="23" height="23" fill="white"/>
</clipPath>
</defs>
</svg>
