<?xml version="1.0" encoding="UTF-8"?>
<svg width="23px" height="22px" viewBox="0 0 23 22" version="1.1" xmlns="http://www.w3.org/2000/svg" xmlns:xlink="http://www.w3.org/1999/xlink">
    <title>github</title>
    <g id="Page-1" stroke="none" stroke-width="1" fill="none" fill-rule="evenodd">
        <g id="Main-page" transform="translate(-630.000000, -950.000000)" fill="#FFFFFF" fill-rule="nonzero">
            <g id="Group-2" transform="translate(630.175781, 762.011719)">
                <g id="github" transform="translate(0.000000, 188.085938)">
                    <path d="M10.546875,0.261035156 C4.71972656,0.261035156 0,4.98339844 0,10.8079102 C0,15.46875 3.02167969,19.4211914 7.21142578,20.8142578 C7.73876953,20.9135742 7.93212891,20.5875 7.93212891,20.3071289 C7.93212891,20.0566406 7.92333984,19.3930664 7.91894531,18.5141602 C4.98515625,19.1504883 4.36640625,17.0991211 4.36640625,17.0991211 C3.88652344,15.8818359 3.19306641,15.5566406 3.19306641,15.5566406 C2.23769531,14.9027344 3.26689453,14.915918 3.26689453,14.915918 C4.32597656,14.9897461 4.88232422,16.0022461 4.88232422,16.0022461 C5.82275391,17.6150391 7.35117188,17.1492187 7.95410156,16.8793945 C8.04902344,16.1973633 8.32060547,15.7324219 8.62207031,15.46875 C6.27978516,15.2050781 3.81796875,14.2980469 3.81796875,10.2568359 C3.81796875,9.10546875 4.22666016,8.16503906 4.90341797,7.42675781 C4.78476563,7.16044922 4.42880859,6.08818359 4.99570313,4.63535156 C4.99570313,4.63535156 5.87900391,4.35234375 7.89609375,5.71640625 C8.73984375,5.48173828 9.63632813,5.36572266 10.5328125,5.36044922 C11.4292969,5.36572266 12.3257813,5.48173828 13.1695313,5.71640625 C15.1734375,4.35234375 16.0567383,4.63535156 16.0567383,4.63535156 C16.6236328,6.08818359 16.2676758,7.16044922 16.162207,7.42675781 C16.8345703,8.16503906 17.2432617,9.10546875 17.2432617,10.2568359 C17.2432617,14.3085938 14.7779297,15.2006836 12.43125,15.4599609 C12.8003906,15.7763672 13.1431641,16.4232422 13.1431641,17.4111328 C13.1431641,18.8226563 13.1299805,19.9564453 13.1299805,20.2992188 C13.1299805,20.5760742 13.3145508,20.9056641 13.8550781,20.8001953 C18.074707,19.4167969 21.09375,15.4617187 21.09375,10.8079102 C21.09375,4.98339844 16.3713867,0.261035156 10.546875,0.261035156" id="Path"></path>
                </g>
            </g>
        </g>
    </g>
</svg>