<?xml version="1.0" encoding="UTF-8"?>
<svg width="23px" height="23px" viewBox="0 0 23 23" version="1.1" xmlns="http://www.w3.org/2000/svg" xmlns:xlink="http://www.w3.org/1999/xlink">
    <title>instagram</title>
    <g id="Page-1" stroke="none" stroke-width="1" fill="none" fill-rule="evenodd">
        <g id="Main-page" transform="translate(-630.000000, -995.000000)" fill="#FFFFFF" fill-rule="nonzero">
            <g id="Group-2" transform="translate(630.175781, 762.011719)">
                <g id="instagram" transform="translate(0.000000, 233.789062)">
                    <path d="M10.546875,0 C7.68164063,0 7.32392578,0.0131835938 6.19892578,0.06328125 C5.07568359,0.116015625 4.31103516,0.292675781 3.63867187,0.553710938 C2.94521484,0.82265625 2.35634766,1.18388672 1.77011719,1.77011719 C1.18388672,2.35634766 0.821777344,2.94433594 0.553710938,3.63867187 C0.292675781,4.31103516 0.115136719,5.07568359 0.06328125,6.19892578 C0.010546875,7.32392578 0,7.68164063 0,10.546875 C0,13.4121094 0.0131835938,13.7698242 0.06328125,14.8948242 C0.116015625,16.0171875 0.292675781,16.7827148 0.553710938,17.4550781 C0.82265625,18.1476563 1.18388672,18.7374023 1.77011719,19.3236328 C2.35634766,19.9089844 2.94433594,20.2719727 3.63867187,20.5400391 C4.31191406,20.8001953 5.0765625,20.9786133 6.19892578,21.0304688 C7.32392578,21.0832031 7.68164063,21.09375 10.546875,21.09375 C13.4121094,21.09375 13.7698242,21.0805664 14.8948242,21.0304688 C16.0171875,20.9777344 16.7827148,20.8001953 17.4550781,20.5400391 C18.1476563,20.2710937 18.7374023,19.9089844 19.3236328,19.3236328 C19.9089844,18.7374023 20.2719727,18.150293 20.5400391,17.4550781 C20.8001953,16.7827148 20.9786133,16.0171875 21.0304688,14.8948242 C21.0832031,13.7698242 21.09375,13.4121094 21.09375,10.546875 C21.09375,7.68164063 21.0805664,7.32392578 21.0304688,6.19892578 C20.9777344,5.0765625 20.8001953,4.31015625 20.5400391,3.63867188 C20.2710937,2.94521484 19.9089844,2.35634766 19.3236328,1.77011719 C18.7374023,1.18388672 18.150293,0.821777344 17.4550781,0.553710938 C16.7827148,0.292675781 16.0171875,0.115136719 14.8948242,0.06328125 C13.7698242,0.010546875 13.4121094,0 10.546875,0 Z M10.546875,1.8984375 C13.3620117,1.8984375 13.6977539,1.9125 14.8095703,1.96083984 C15.8378906,2.00917969 16.3959961,2.1796875 16.7668945,2.32558594 C17.2608398,2.51630859 17.6106445,2.74482422 17.981543,3.11308594 C18.3498047,3.48222656 18.5783203,3.83291016 18.769043,4.32685547 C18.9131836,4.69775391 19.0854492,5.25585938 19.1320313,6.28417969 C19.1821289,7.396875 19.1935547,7.73085937 19.1935547,10.546875 C19.1935547,13.3628906 19.1803711,13.6977539 19.1285156,14.8095703 C19.0749023,15.8378906 18.9035156,16.3959961 18.7584961,16.7668945 C18.5616211,17.2608398 18.3375,17.6106445 17.9683594,17.981543 C17.6000977,18.3498047 17.2441406,18.5783203 16.7554688,18.769043 C16.3863281,18.9131836 15.8194336,19.0854492 14.7911133,19.1320313 C13.6713867,19.1821289 13.3417969,19.1935547 10.5205078,19.1935547 C7.69833984,19.1935547 7.36875,19.1803711 6.24990234,19.1285156 C5.22070313,19.0749023 4.65380859,18.9035156 4.28466797,18.7584961 C3.78457031,18.5616211 3.44091797,18.3375 3.07265625,17.9683594 C2.70263672,17.6000977 2.46621094,17.2441406 2.28164063,16.7554687 C2.13662109,16.3863281 1.96611328,15.8194336 1.9125,14.7911133 C1.87294922,13.6836914 1.85888672,13.3417969 1.85888672,10.5336914 C1.85888672,7.72470703 1.87294922,7.38193359 1.9125,6.26132813 C1.96611328,5.23300781 2.13662109,4.66699219 2.28164063,4.29785156 C2.46621094,3.796875 2.70263672,3.45410156 3.07265625,3.08408203 C3.44091797,2.71582031 3.78457031,2.47851563 4.28466797,2.29482422 C4.65380859,2.14892578 5.20839844,1.97753906 6.23671875,1.92480469 C7.35732422,1.88525391 7.68691406,1.87207031 10.5073242,1.87207031 L10.546875,1.8984375 L10.546875,1.8984375 Z M10.546875,5.13105469 C7.55419922,5.13105469 5.13105469,7.55683594 5.13105469,10.546875 C5.13105469,13.5395508 7.55683594,15.9626953 10.546875,15.9626953 C13.5395508,15.9626953 15.9626953,13.5369141 15.9626953,10.546875 C15.9626953,7.55419922 13.5369141,5.13105469 10.546875,5.13105469 Z M10.546875,14.0625 C8.60449219,14.0625 7.03125,12.4892578 7.03125,10.546875 C7.03125,8.60449219 8.60449219,7.03125 10.546875,7.03125 C12.4892578,7.03125 14.0625,8.60449219 14.0625,10.546875 C14.0625,12.4892578 12.4892578,14.0625 10.546875,14.0625 Z M17.4427734,4.91748047 C17.4427734,5.61621094 16.875,6.18310547 16.1771484,6.18310547 C15.478418,6.18310547 14.9115234,5.61533203 14.9115234,4.91748047 C14.9115234,4.21962891 15.4792969,3.65273336 16.1771484,3.65273336 C16.8741211,3.65185547 17.4427734,4.21962891 17.4427734,4.91748047 Z" id="Shape"></path>
                </g>
            </g>
        </g>
    </g>
</svg>