<?xml version="1.0" encoding="UTF-8"?>
<svg width="23px" height="19px" viewBox="0 0 23 19" version="1.1" xmlns="http://www.w3.org/2000/svg" xmlns:xlink="http://www.w3.org/1999/xlink">
    <title>twitter</title>
    <g id="Page-1" stroke="none" stroke-width="1" fill="none" fill-rule="evenodd">
        <g id="Main-page" transform="translate(-630.000000, -906.000000)" fill="#FFFFFF" fill-rule="nonzero">
            <g id="Group-2" transform="translate(630.175781, 762.011719)">
                <g id="twitter" transform="translate(0.000000, 144.140625)">
                    <path d="M21.09375,2.24736328 C20.3176758,2.59189453 19.4835938,2.82392578 18.6082031,2.92851563 C19.5020508,2.39326172 20.1884766,1.54511719 20.5110352,0.534375 C19.6751953,1.03007813 18.7488281,1.39042969 17.7626953,1.58466797 C16.9743164,0.743554688 15.8484375,0.21796875 14.6039062,0.21796875 C11.8098633,0.21796875 9.75673828,2.82480469 10.387793,5.53095703 C6.7921875,5.35078125 3.60351563,3.628125 1.46865234,1.00986328 C0.334863281,2.95488281 0.880664063,5.49931641 2.80722656,6.78779297 C2.09882813,6.76494141 1.43085938,6.57070313 0.848144531,6.24638672 C0.800683594,8.25117188 2.23769531,10.1267578 4.31894531,10.5442383 C3.70986328,10.7094727 3.04277344,10.7481445 2.36425781,10.6180664 C2.91445313,12.337207 4.51230469,13.5878906 6.40722656,13.6230469 C4.58789063,15.0495117 2.29570313,15.6867188 0,15.4160156 C1.91513672,16.6438477 4.190625,17.3601563 6.63398437,17.3601563 C14.6689453,17.3601563 19.2084961,10.5741211 18.9342773,4.48769531 C19.7797852,3.87685547 20.5136719,3.11484375 21.09375,2.24736328 Z" id="Path"></path>
                </g>
            </g>
        </g>
    </g>
</svg>